<?xml version="1.0" encoding="UTF-8" standalone="no"?>
<svg
   xmlns:osb="http://www.openswatchbook.org/uri/2009/osb"
   xmlns:dc="http://purl.org/dc/elements/1.1/"
   xmlns:cc="http://creativecommons.org/ns#"
   xmlns:rdf="http://www.w3.org/1999/02/22-rdf-syntax-ns#"
   xmlns:svg="http://www.w3.org/2000/svg"
   xmlns="http://www.w3.org/2000/svg"
   xmlns:xlink="http://www.w3.org/1999/xlink"
   xmlns:sodipodi="http://sodipodi.sourceforge.net/DTD/sodipodi-0.dtd"
   xmlns:inkscape="http://www.inkscape.org/namespaces/inkscape"
   enable-background="new 0 0 128 128"
   height="128px"
   id="Layer_1"
   version="1.1"
   viewBox="0 0 128 128"
   width="128px"
   xml:space="preserve"
   inkscape:version="0.48.5 r10040"
   sodipodi:docname="auto-parse.svg"
   inkscape:export-filename="D:\yjchen\Pictures\1431642301_free-23.png"
   inkscape:export-xdpi="180"
   inkscape:export-ydpi="180"><metadata
   id="metadata9"><rdf:RDF><cc:Work
       rdf:about=""><dc:format>image/svg+xml</dc:format><dc:type
         rdf:resource="http://purl.org/dc/dcmitype/StillImage" /><dc:title /></cc:Work></rdf:RDF></metadata><defs
   id="defs7"><linearGradient
     id="linearGradient4296"
     osb:paint="solid"><stop
       style="stop-color:#3b97d3;stop-opacity:1;"
       offset="0"
       id="stop4298" /></linearGradient><filter
     style="color-interpolation-filters:sRGB;"
     inkscape:label="Drop Shadow"
     id="filter4232"><feFlood
       flood-opacity="0.3"
       flood-color="rgb(0,0,0)"
       result="flood"
       id="feFlood4234" /><feComposite
       in="flood"
       in2="SourceGraphic"
       operator="in"
       result="composite1"
       id="feComposite4236" /><feGaussianBlur
       in="composite"
       stdDeviation="0.8"
       result="blur"
       id="feGaussianBlur4238" /><feOffset
       dx="0"
       dy="0"
       result="offset"
       id="feOffset4240" /><feComposite
       in="SourceGraphic"
       in2="offset"
       operator="over"
       result="composite2"
       id="feComposite4242" /></filter><filter
     inkscape:collect="always"
     id="filter4272"><feGaussianBlur
       inkscape:collect="always"
       stdDeviation="0.0021501459"
       id="feGaussianBlur4274" /></filter><linearGradient
     inkscape:collect="always"
     xlink:href="#linearGradient4296"
     id="linearGradient4300"
     x1="19.549778"
     y1="79.759491"
     x2="107.22654"
     y2="79.759491"
     gradientUnits="userSpaceOnUse" /></defs><sodipodi:namedview
   pagecolor="#ffffff"
   bordercolor="#666666"
   borderopacity="1"
   objecttolerance="10"
   gridtolerance="10"
   guidetolerance="10"
   inkscape:pageopacity="0"
   inkscape:pageshadow="2"
   inkscape:window-width="1920"
   inkscape:window-height="1028"
   id="namedview5"
   showgrid="false"
   inkscape:zoom="0.92187498"
   inkscape:cx="-437.71745"
   inkscape:cy="27.876115"
   inkscape:window-x="-8"
   inkscape:window-y="-8"
   inkscape:window-maximized="1"
   inkscape:current-layer="Layer_1" /><path
   d="M90.6,45c-2.6,0-5,0.3-7.4,0.9c-1.8-11.9-11.9-21-24.3-21c-13.6,0-24.6,11-24.6,24.6c0,1.8,0.2,3.6,0.6,5.4  c-0.1,0-0.3,0-0.4,0C21,54.9,10,65.9,10,79.4c0,13.5,10.9,24.4,24.4,24.4h56.1c16.2,0,29.4-13.2,29.4-29.4  C120,58.2,106.8,45,90.6,45z M90.6,99.8H34.5C23.2,99.8,14,90.6,14,79.4c0-11.3,9.1-20.4,20.4-20.4c0,0,0,0,0,0c0.1,0,0.3,0,0.4,0  l5.1,0.1l-1.1-5c-0.3-1.5-0.5-3-0.5-4.5c0-11.4,9.2-20.6,20.6-20.6c10.1,0,18.9,7.5,20.3,17.6l0.1,0.9c-5,2.3-9.3,5.9-12.4,10.4  l3.3,2.3C74.8,53.7,82.1,49,90.6,49v0c14,0,25.4,11.4,25.4,25.4C116,88.4,104.6,99.8,90.6,99.8z"
   fill="#3B97D3"
   id="path3" /><text
   xml:space="preserve"
   style="font-size:24.28104782px;font-style:normal;font-variant:normal;font-weight:200;font-stretch:normal;line-height:125%;letter-spacing:0px;word-spacing:0px;fill:#3b97d3;fill-opacity:1;stroke:#3b97d3;stroke-width:0.50558507;stroke-linecap:butt;stroke-linejoin:miter;stroke-miterlimit:4;stroke-opacity:1;stroke-dasharray:none;stroke-dashoffset:0;filter:url(#filter4272);font-family:Raleway;-inkscape-font-specification:Raleway Ultra-Light"
   x="18.86673"
   y="84.494102"
   id="text3758"
   sodipodi:linespacing="125%"
   transform="matrix(1.0186219,0,0,1.0186219,28.840149,1.539589)"><tspan
     sodipodi:role="line"
     id="tspan3760"
     x="18.86673"
     y="84.494102"
     style="font-weight:200;fill:#3b97d3;fill-opacity:1;stroke:#3b97d3;stroke-width:0.50558507;stroke-linecap:butt;stroke-linejoin:miter;stroke-miterlimit:4;stroke-opacity:1;stroke-dasharray:none;stroke-dashoffset:0;-inkscape-font-specification:Raleway Ultra-Light">Parse</tspan></text>

<text
   xml:space="preserve"
   style="font-size:29.69036102px;font-style:normal;font-variant:normal;font-weight:200;font-stretch:normal;line-height:125%;letter-spacing:0px;word-spacing:0px;fill:#3b97d3;fill-opacity:1;stroke:#3b97d3;stroke-width:0.74225903;stroke-opacity:1;font-family:Raleway;-inkscape-font-specification:Raleway Ultra-Light"
   x="21.106709"
   y="85.603996"
   id="text2995"
   sodipodi:linespacing="125%"><tspan
     sodipodi:role="line"
     id="tspan2997"
     x="21.106709"
     y="85.603996"
     style="stroke-width:0.74225903">@</tspan></text>
</svg>